# xmcd
#
# Track frame offsets: 
#        150
#        11904
#        27403
#        40292
#        56746
#        73912
#        90209
#        105905
#        116885
#        134005
#        150375
#        165444
#        177969
#
# Disc length: 2587 seconds
#
# Revision: 0
# Processed by: cddbd v1.5.2PL0 Copyright (c) Steve Scherf et al.
# Submitted via: ExactAudioCopy v0.99pb4
#
DISCID=a90a190d
DTITLE=Chicken Slacks - Can You Dig It?
DYEAR=2009
DGENRE=R&B
TTITLE0=Too Much Time
TTITLE1=On a Saturday Night
TTITLE2=Hook and Sling
TTITLE3=I'm in Love
TTITLE4=Going to the Shack
TTITLE5=I Wanna Take a Shower With You
TTITLE6=Funky Way
TTITLE7=You Don't Know
TTITLE8=Long as I Can See the Light
TTITLE9=Any Other Way
TTITLE10=Tragedy
TTITLE11=Only a Fool Gets to Heaven
TTITLE12=She's Looking Good
EXTD=
EXTT0=
EXTT1=
EXTT2=
EXTT3=
EXTT4=
EXTT5=
EXTT6=
EXTT7=
EXTT8=
EXTT9=
EXTT10=
EXTT11=
EXTT12=
PLAYORDER=
